{
	"asset":{
		"version":"2.0",
		"generator":"Created using the official Cinema 4D glTF Exporter 1.000x284978"
	},
	"scenes":[{
		"nodes":[0]
	}],
	"nodes":[{
		"name":"SKULL",
		"translation":[0.0,
		0.0,
		0.0],
		"rotation":[0.0,
		0.0,
		7.450580596923828e-9,
		-1.0],
		"scale":[0.17800000309944154,
		0.17800000309944154,
		0.17800000309944154],
		"mesh":0
	}],
	"meshes":[{
		"name":"SKULL",
		"primitives":[{
			"attributes":{
				"POSITION":1,
				"TEXCOORD_0":2
			},
			"indices":0
		}]
	}],
	"accessors":[{
		"max":[6508],
		"min":[0],
		"bufferView":0,
		"type":"SCALAR",
		"componentType":5123,
		"count":20823,
		"byteOffset":0
	},
	{
		"max":[718.212646484375,
		1402.0828857421876,
		345.3232727050781],
		"min":[-701.5738525390625,
		-416.7654724121094,
		-1493.5811767578126],
		"bufferView":1,
		"type":"VEC3",
		"componentType":5126,
		"count":6509,
		"byteOffset":0
	},
	{
		"max":[0.47290000319480898,
		0.9950799942016602],
		"min":[0.0,
		0.0],
		"bufferView":1,
		"type":"VEC2",
		"componentType":5126,
		"count":6509,
		"byteOffset":12
	}],
	"bufferViews":[{
		"buffer":0,
		"byteOffset":0,
		"byteLength":41646,
		"target":34963
	},
	{
		"buffer":0,
		"byteOffset":41648,
		"byteLength":130180,
		"target":34962,
		"byteStride":20
	}],
	"buffers":[{
		"uri":"data:application/octet-stream;base64,",
		"byteLength":171828
	}]
}